# Blender 4.3.2
# www.blender.org
mtllib GloveRight.mtl
o Glove
v 0.156250 0.064042 0.136359
v 0.143769 -0.057294 -0.043895
v 0.133184 0.068571 -0.053698
v 0.160861 -0.046874 0.152847
v 0.127258 -0.110956 -0.029551
v 0.099379 -0.208165 0.028052
v 0.105947 -0.184266 0.189938
v 0.080182 0.139742 0.069742
v 0.170558 -0.032131 0.268763
v 0.113874 -0.177347 0.277519
v 0.056379 0.216711 0.125670
v 0.025823 0.130871 0.029778
v 0.086396 0.117369 -0.035014
v 0.019859 0.109255 -0.082940
v 0.092461 0.091838 -0.203699
v 0.061662 0.142682 -0.185316
v 0.012770 0.113459 -0.176549
v 0.060040 0.177838 0.067596
v 0.020479 0.155917 0.029184
v -0.024853 0.143689 0.056364
v 0.105147 0.029567 -0.145886
v 0.088097 0.044539 -0.207654
v 0.076535 0.104948 -0.269326
v 0.045709 0.149666 -0.256778
v 0.003373 0.119360 -0.244607
v 0.072659 0.054118 -0.274427
v 0.028279 0.055946 -0.261456
v -0.013813 0.089441 -0.321447
v 0.014525 0.066086 -0.323117
v -0.007849 0.119738 -0.313467
v -0.005491 0.147172 -0.401336
v -0.023971 0.120177 -0.406603
v -0.004943 0.079558 -0.406390
v 0.013237 0.257953 0.039845
v 0.027373 0.210104 0.006040
v -0.000820 0.185110 0.011055
v -0.042302 0.188800 0.012622
v -0.041555 0.261450 0.055794
v -0.061908 0.215308 0.033167
v 0.129026 0.077069 -0.106190
v 0.084109 0.126426 -0.087622
v 0.063950 -0.246879 0.047001
v 0.073576 -0.227042 0.195389
v 0.058433 0.036067 -0.133947
v 0.022920 0.071415 -0.402179
v 0.024151 0.110195 -0.033828
v 0.145407 0.067995 0.026285
v 0.065164 -0.232233 0.113588
v 0.100824 -0.196666 0.099395
v 0.155162 -0.053687 0.048150
v 0.026517 -0.240814 0.049320
v 0.018803 0.066876 -0.098418
v 0.018358 -0.123067 -0.081031
v -0.029049 0.099338 -0.413539
v 0.051666 0.061481 -0.328168
v 0.024138 0.148410 -0.317574
v 0.050735 0.107401 -0.337529
v -0.003371 0.081790 -0.252653
v 0.008520 0.068272 -0.186828
v 0.017238 0.111568 -0.430410
v 0.041105 0.041122 -0.193644
v 0.073839 0.015314 -0.244607
v 0.093712 -0.030742 -0.249291
v 0.020351 0.003117 -0.229665
v 0.086098 -0.076227 -0.238142
v 0.104460 -0.079877 -0.139668
v 0.052662 -0.069635 -0.125991
v 0.049265 -0.065920 -0.227692
v 0.059481 0.014383 -0.302022
v 0.076951 -0.030279 -0.303717
v 0.018798 -0.000557 -0.290275
v 0.073825 -0.075792 -0.294025
v 0.032678 -0.063843 -0.285085
v -0.011990 -0.031085 -0.380488
v 0.010247 -0.057320 -0.375647
v 0.002391 -0.001883 -0.380824
v -0.017030 -0.006399 -0.463617
v 0.011513 0.013731 -0.464450
v 0.004313 -0.063500 -0.459106
v -0.018687 -0.049946 -0.459421
v -0.034932 -0.026838 -0.467409
v 0.044050 -0.069843 -0.380069
v 0.038010 0.014924 -0.387415
v 0.048673 -0.026812 -0.394766
v 0.006498 -0.035184 -0.286829
v 0.009899 -0.037931 -0.226643
v 0.013306 -0.023826 -0.480473
v 0.122151 -0.036190 -0.132311
v 0.108027 0.014522 -0.144747
v 0.059443 0.009037 -0.137294
v 0.034864 -0.026774 -0.109073
v 0.097030 -0.096324 -0.209706
v 0.096036 -0.141758 -0.206830
v 0.038615 -0.103399 -0.189669
v 0.083757 -0.181425 -0.188105
v 0.088937 -0.164334 -0.093905
v 0.032862 -0.159429 -0.093537
v 0.048195 -0.168899 -0.182365
v 0.079935 -0.100557 -0.256629
v 0.081052 -0.144131 -0.259210
v 0.027112 -0.109911 -0.244921
v 0.058005 -0.185768 -0.255512
v 0.022117 -0.170632 -0.244879
v -0.012338 -0.144901 -0.349668
v 0.001128 -0.170416 -0.347279
v 0.006260 -0.119016 -0.345239
v -0.012767 -0.129628 -0.424134
v 0.023072 -0.110799 -0.423190
v 0.004176 -0.185061 -0.432011
v -0.018077 -0.172311 -0.428308
v -0.027324 -0.148697 -0.432991
v 0.029745 -0.184377 -0.354352
v 0.050257 -0.104917 -0.350278
v 0.048713 -0.144678 -0.364054
v 0.003847 -0.142660 -0.244119
v 0.021860 -0.134448 -0.181338
v 0.020537 -0.147583 -0.446966
v 0.107003 -0.130022 -0.102665
v 0.100524 -0.088011 -0.133448
v 0.049030 -0.093087 -0.116377
v 0.057497 -0.192343 -0.148057
v 0.062754 -0.224875 -0.135882
v -0.006138 -0.187647 -0.122232
v 0.043925 -0.266810 -0.112175
v 0.054249 -0.262488 -0.039064
v 0.016045 -0.253236 -0.044168
v 0.053461 -0.194796 -0.172551
v 0.063655 -0.230998 -0.168185
v 0.004263 -0.203050 -0.179346
v 0.039087 -0.273787 -0.157707
v 0.042451 -0.200865 -0.233276
v 0.050579 -0.241127 -0.233541
v -0.006382 -0.213525 -0.221833
v 0.032793 -0.282678 -0.221426
v -0.000842 -0.261068 -0.156749
v -0.006098 -0.269587 -0.209744
v -0.023695 -0.233425 -0.302292
v 0.000642 -0.218838 -0.306520
v 0.003044 -0.283749 -0.302261
v -0.018611 -0.273467 -0.300203
v -0.030170 -0.254609 -0.306428
v -0.016635 -0.241939 -0.216677
v -0.014937 -0.233249 -0.170974
v -0.015289 -0.222402 -0.102316
v 0.002340 -0.257732 -0.097410
v 0.013831 -0.250929 -0.321699
v 0.081068 -0.229127 -0.054216
v 0.080327 -0.186711 -0.082596
v 0.016432 -0.188231 -0.083512
v -0.016279 -0.218565 -0.046057
v -0.001904 -0.206826 0.027102
v 0.029717 -0.225898 0.119557
v -0.001058 -0.189270 0.102762
v -0.014692 0.208898 0.164529
v 0.018449 0.158855 0.230488
v -0.059079 0.154037 0.148996
v 0.030381 -0.214249 0.199332
v -0.022421 -0.019290 0.155157
v -0.057623 0.074781 0.114821
v -0.020721 0.005579 0.302604
v -0.001302 -0.094429 0.306073
v -0.061586 0.112577 0.203558
v 0.005067 -0.012467 -0.012105
v 0.003093 0.052341 -0.021221
v -0.001740 0.019316 0.086014
v 0.003431 0.075620 0.045465
v 0.129441 0.114133 0.245490
v 0.093415 0.150548 0.175141
v 0.091321 0.124168 0.032972
v -0.004638 0.273514 0.000940
v -0.053226 0.278869 0.024738
v -0.073283 0.235472 0.001307
v 0.019637 0.228078 -0.030212
v -0.018989 0.200859 -0.035843
v -0.073228 0.313591 -0.066323
v -0.080260 0.297119 -0.085175
v -0.032663 0.272067 -0.109368
v -0.015859 0.284683 -0.107183
v -0.060532 0.288916 -0.109230
v -0.058492 0.207836 -0.030331
v -0.040657 0.314511 -0.096905
v 0.128041 0.074434 0.328535
v 0.152666 0.069945 0.257158
v 0.111916 -0.173318 0.328611
v 0.155947 -0.023161 0.347681
v 0.069571 -0.205283 0.272686
v 0.023955 0.113023 0.008404
v -0.026731 0.109014 0.058855
v -0.067793 0.035569 0.167024
v -0.026534 -0.032842 0.234689
v -0.057679 0.026913 0.231081
v 0.129574 0.122152 0.155521
v 0.013382 -0.167579 0.273675
v 0.029247 0.121778 0.279909
v -0.041252 0.066648 0.263738
v 0.087821 0.137659 0.233916
v 0.041962 0.094807 0.320958
v 0.057122 -0.180303 0.322625
v -0.009384 -0.136898 0.226234
v -0.006713 -0.175900 0.171367
v 0.026265 0.082606 0.447188
v 0.012568 0.111741 0.396588
v 0.110071 0.076779 0.458215
v 0.129130 0.099706 0.408870
v 0.146845 -0.009790 0.464017
v 0.171831 -0.012491 0.425431
v 0.107741 -0.143361 0.459420
v 0.125028 -0.176961 0.410023
v 0.047047 -0.150546 0.452654
v 0.030630 -0.188003 0.404219
v 0.000805 0.018893 0.445800
v -0.031806 0.017513 0.395202
v 0.013094 0.116403 0.453498
v -0.003701 0.143096 0.400555
v 0.136670 0.128585 0.415360
v 0.120400 0.108941 0.467714
v -0.019215 0.034779 0.451684
v -0.057050 0.029705 0.398964
v 0.187858 -0.006229 0.435159
v 0.167291 -0.001908 0.475277
v 0.131927 -0.203545 0.416898
v 0.117557 -0.172743 0.469327
v 0.017655 -0.216994 0.409934
v 0.039391 -0.181946 0.460576
v 0.077873 0.057276 0.309043
v 0.018585 0.061325 0.301155
v 0.000759 0.016319 0.300160
v 0.103771 -0.003717 0.313210
v 0.076356 -0.097614 0.309947
v 0.033007 -0.102661 0.305051
vn 0.9885 0.0637 -0.1368
vn 0.9271 -0.3727 -0.0406
vn 0.9134 -0.3552 -0.1989
vn 0.1124 0.8691 -0.4817
vn 0.9943 0.1005 -0.0344
vn 0.1243 -0.9905 -0.0587
vn 0.8972 0.4051 -0.1756
vn -0.3592 0.9205 0.1539
vn 0.9334 -0.1228 -0.3371
vn 0.5873 0.2030 -0.7835
vn 0.6060 -0.3764 -0.7007
vn -0.1689 -0.6812 -0.7123
vn 0.1383 0.9107 0.3893
vn -0.8472 0.4202 0.3250
vn -0.8316 -0.5051 -0.2311
vn -0.0719 -0.9872 -0.1424
vn -0.5965 -0.7990 0.0764
vn -0.5107 0.8427 0.1706
vn 0.9690 -0.0592 -0.2397
vn -0.0335 -0.9846 -0.1715
vn -0.6421 -0.7654 -0.0436
vn 0.7326 0.6325 -0.2513
vn 0.9314 -0.0832 -0.3544
vn -0.1928 -0.9774 -0.0864
vn 0.4135 0.8188 0.3984
vn 0.9300 -0.3672 -0.0154
vn 0.3554 0.7580 0.5470
vn -0.6362 -0.7712 0.0225
vn -0.6330 -0.7740 0.0123
vn -0.6365 -0.7709 0.0232
vn -0.9719 0.1593 0.1734
vn 0.7497 0.6044 -0.2697
vn 0.9315 -0.0443 -0.3610
vn 0.7415 0.6677 0.0661
vn 0.9653 0.0397 -0.2580
vn 0.7668 0.6281 -0.1320
vn 0.9153 -0.2827 -0.2868
vn 0.7423 -0.6609 0.1110
vn 0.7601 -0.6496 0.0146
vn -0.1990 0.0330 -0.9795
vn -0.5953 0.7903 0.1452
vn -0.6329 -0.7742 0.0118
vn -0.7299 0.6578 0.1858
vn -0.9812 0.0928 0.1695
vn -0.9949 0.0321 0.0959
vn -0.3928 0.4042 -0.8261
vn -0.7038 -0.0172 -0.7102
vn -0.2817 -0.3752 -0.8831
vn 0.7560 -0.6546 0.0074
vn 0.9340 -0.3237 0.1514
vn -0.1402 -0.9668 0.2134
vn -0.2016 -0.9640 0.1732
vn -0.2213 -0.9686 0.1134
vn -0.0066 -0.3820 -0.9241
vn -0.1842 0.9788 0.0900
vn -0.9741 0.2168 -0.0647
vn -0.9619 -0.1070 -0.2515
vn -0.7409 -0.0849 -0.6662
vn -0.1041 -0.9875 -0.1184
vn -0.9761 0.1445 0.1621
vn 0.9181 0.3020 -0.2565
vn -0.1117 -0.5458 -0.8305
vn -0.1629 0.9860 0.0358
vn 0.9370 -0.2751 -0.2152
vn -0.2287 -0.9734 -0.0110
vn -0.7576 -0.6416 0.1198
vn -0.2769 0.9609 -0.0002
vn 0.9526 -0.1702 -0.2521
vn -0.2636 -0.9635 0.0458
vn -0.6523 -0.7538 0.0800
vn 0.9075 0.2435 -0.3423
vn 0.8555 -0.3188 -0.4081
vn -0.4095 -0.9072 0.0963
vn -0.7970 -0.5687 0.2035
vn -0.4865 0.8669 0.1088
vn 0.9127 0.3234 -0.2500
vn 0.9340 -0.1685 -0.3151
vn -0.9043 0.3885 0.1771
vn -0.7513 -0.6471 0.1296
vn -0.8269 0.5234 0.2056
vn -0.9561 0.2906 0.0370
vn -0.8505 0.4774 0.2207
vn -0.2740 0.3782 -0.8842
vn -0.3065 -0.9516 0.0234
vn -0.3676 0.9269 0.0750
vn 0.8192 0.5632 -0.1079
vn 0.9961 0.0304 -0.0832
vn -0.2205 -0.4339 -0.8735
vn -0.1455 0.9833 -0.1089
vn 0.9225 -0.3855 -0.0191
vn -0.1768 -0.9754 0.1317
vn -0.8685 -0.4947 -0.0319
vn -0.1621 0.9851 -0.0582
vn 0.8552 -0.4449 -0.2659
vn -0.3212 -0.9313 0.1717
vn -0.7680 -0.5578 0.3145
vn -0.3806 0.9246 0.0154
vn 0.9338 0.1162 -0.3383
vn 0.8397 -0.4708 -0.2705
vn -0.4374 -0.8886 0.1379
vn -0.8999 -0.3872 0.2006
vn -0.2364 0.9716 -0.0059
vn 0.9527 0.0538 -0.2990
vn -0.8152 0.5665 0.1201
vn -0.8156 0.5659 0.1208
vn -0.8121 0.5720 0.1150
vn -0.8514 -0.5004 0.1571
vn -0.3894 -0.9168 0.0880
vn -0.8296 0.5405 0.1400
vn -0.8033 0.5940 -0.0422
vn -0.2542 0.5447 -0.7992
vn -0.3642 0.9271 -0.0884
vn 0.8421 -0.4766 -0.2525
vn -0.8118 0.5725 0.1145
vn 0.8893 0.3836 -0.2490
vn 0.9610 -0.0682 -0.2681
vn -0.2768 -0.2647 -0.9237
vn 0.0142 0.9984 -0.0546
vn 0.8094 -0.5679 -0.1495
vn -0.2102 -0.9717 0.1078
vn -0.8125 -0.5665 0.1375
vn -0.0675 0.9735 -0.2183
vn 0.8945 -0.4461 0.0298
vn -0.2363 -0.9651 0.1130
vn -0.8996 -0.4314 0.0677
vn 0.9533 0.2172 -0.2100
vn -0.2124 0.9709 -0.1111
vn 0.8847 -0.4616 -0.0647
vn -0.2822 -0.9444 0.1688
vn 0.8213 0.3398 -0.4582
vn 0.8402 -0.4507 -0.3016
vn -0.3361 -0.9354 0.1100
vn -0.9081 -0.3843 0.1665
vn -0.9412 0.3197 0.1094
vn -0.9236 -0.3613 0.1281
vn -0.9284 0.3398 -0.1503
vn -0.7647 0.6261 0.1523
vn -0.3325 0.2841 -0.8993
vn -0.8908 0.4536 0.0261
vn 0.9516 0.0003 -0.3074
vn 0.9763 0.1993 -0.0840
vn -0.2705 -0.4314 -0.8606
vn -0.7231 0.0476 -0.6891
vn -0.9991 0.0091 -0.0420
vn -0.9993 0.0104 -0.0372
vn -0.9992 0.0098 -0.0397
vn -0.7676 -0.6080 0.2026
vn -0.7062 0.0867 -0.7026
vn -0.9571 -0.2064 0.2035
vn -0.7972 -0.5842 0.1521
vn -0.9167 0.1102 -0.3840
vn -0.6924 -0.3788 -0.6141
vn -0.5591 0.5768 0.5956
vn -0.7238 -0.4824 -0.4934
vn -0.9373 -0.3401 -0.0761
vn -0.9991 0.0091 -0.0422
vn -0.9287 0.3609 -0.0853
vn 0.9958 0.0488 -0.0773
vn 0.7907 0.5931 -0.1517
vn 0.7030 0.7024 -0.1110
vn -0.0875 -0.9851 0.1479
vn -0.8849 0.1780 0.4304
vn 0.8910 0.4412 -0.1068
vn 0.5508 -0.6995 -0.4553
vn -0.1506 -0.9399 -0.3063
vn -0.9346 0.2332 0.2686
vn 0.8301 0.5570 -0.0286
vn 0.5021 -0.5713 -0.6492
vn -0.2993 -0.6902 -0.6588
vn -0.8736 -0.3910 -0.2898
vn -0.8352 -0.5496 0.0197
vn -0.4673 0.6996 -0.5406
vn 0.8725 0.4282 -0.2352
vn 0.0715 0.2934 -0.9533
vn 0.9526 -0.2573 -0.1622
vn 0.8992 0.4371 0.0202
vn 0.1755 0.9579 -0.2274
vn -0.6797 -0.5726 0.4585
vn 0.9420 0.2505 0.2235
vn 0.6742 -0.7301 0.1110
vn -0.4777 -0.0730 -0.8755
vn -0.1251 0.9888 -0.0810
vn -0.8323 -0.5520 -0.0506
vn 0.5641 0.8103 -0.1587
vn -0.8394 -0.5031 0.2058
vn -0.8893 -0.2444 0.3866
vn 0.5597 0.8174 0.1364
vn -0.4154 -0.8493 0.3257
vn -0.9917 -0.1258 -0.0262
vn -0.7628 -0.6413 0.0825
vn -0.9955 0.0624 -0.0710
vn -0.9667 0.0373 0.2533
vn -0.6278 0.5348 0.5656
vn -0.6075 0.3957 0.6887
vn 0.2504 0.8835 0.3960
vn 0.2437 0.8131 0.5287
vn 0.2873 -0.9090 0.3020
vn -0.9782 -0.0618 -0.1983
vn 0.2487 0.9223 0.2959
vn -0.9823 0.1060 -0.1548
vn 0.9420 -0.3327 -0.0442
vn 0.9427 0.2889 -0.1669
vn -0.1387 0.2742 0.9516
vn 0.1221 0.1869 -0.9748
vn 0.2041 -0.1026 0.9736
vn 0.5003 0.0630 -0.8636
vn -0.1966 -0.1027 -0.9751
vn 0.5402 -0.0754 -0.8382
vn -0.8149 0.5060 -0.2829
vn 0.0340 0.9148 0.4024
vn -0.8034 0.3444 0.4858
vn 0.8368 0.3782 0.3960
vn 0.8603 -0.2751 0.4292
vn 0.0556 -0.8432 0.5347
vn -0.8098 -0.2095 0.5480
vn -0.5106 0.1195 0.8514
vn -0.4377 -0.1252 0.8904
vn 0.3781 0.1400 0.9151
vn -0.1136 0.0677 -0.9912
vn 0.0862 -0.2291 -0.9696
vn -0.1434 -0.2365 0.9610
vn -0.1225 0.0103 0.9924
vn -0.9254 0.2611 0.2745
vn -0.1458 0.9370 0.3176
vn 0.9290 -0.3700 0.0057
vn -0.8989 -0.3654 0.2419
vn 0.9650 0.2624 -0.0058
vn 0.2102 0.9156 0.3428
vt 0.000000 0.000000
s 1
usemtl Brown
f 2/1/1 3/1/1 47/1/1 50/1/1
f 4/1/2 9/1/2 10/1/2 7/1/2
f 96/1/3 118/1/3 5/1/3 6/1/3 147/1/3 148/1/3
f 8/1/4 169/1/4 187/1/4 12/1/4
f 1/1/5 183/1/5 9/1/5 4/1/5
f 184/1/6 208/1/6 210/1/6 198/1/6
f 8/1/7 18/1/7 11/1/7 168/1/7
f 41/1/8 16/1/8 17/1/8 14/1/8
f 15/1/9 40/1/9 21/1/9 22/1/9
f 12/1/10 19/1/10 18/1/10 8/1/10
f 19/1/11 36/1/11 35/1/11 18/1/11
f 20/1/12 37/1/12 36/1/12 19/1/12
f 11/1/13 34/1/13 38/1/13 154/1/13
f 154/1/14 38/1/14 39/1/14 156/1/14
f 156/1/15 39/1/15 37/1/15 20/1/15
f 44/1/16 61/1/16 22/1/16 21/1/16
f 52/1/17 59/1/17 61/1/17 44/1/17
f 16/1/18 24/1/18 25/1/18 17/1/18
f 22/1/19 26/1/19 23/1/19 15/1/19
f 61/1/20 27/1/20 26/1/20 22/1/20
f 61/1/21 59/1/21 58/1/21 27/1/21
f 57/1/22 60/1/22 31/1/22 56/1/22
f 55/1/23 45/1/23 60/1/23 57/1/23
f 29/1/24 33/1/24 45/1/24 55/1/24
f 182/1/25 183/1/25 167/1/25 197/1/25
f 4/1/26 7/1/26 49/1/26 50/1/26
f 11/1/27 154/1/27 155/1/27 168/1/27
f 29/1/28 28/1/29 54/1/30 33/1/30
f 30/1/31 32/1/31 54/1/31 28/1/31
f 24/1/32 23/1/32 57/1/32 56/1/32
f 23/1/33 26/1/33 55/1/33 57/1/33
f 3/1/34 40/1/34 41/1/34 13/1/34
f 89/1/35 21/1/35 40/1/35 3/1/35 2/1/35 88/1/35
f 16/1/36 41/1/36 40/1/36 15/1/36
f 66/1/37 88/1/37 2/1/37 5/1/37 118/1/37 119/1/37
f 49/1/38 48/1/38 42/1/38 6/1/38
f 6/1/39 42/1/39 125/1/39 147/1/39
f 90/1/40 44/1/40 21/1/40 89/1/40
f 25/1/41 24/1/41 56/1/41 30/1/41
f 28/1/29 29/1/28 27/1/42 58/1/42
f 56/1/43 31/1/43 32/1/43 30/1/43
f 58/1/44 59/1/44 17/1/44 25/1/44
f 14/1/45 17/1/45 59/1/45 52/1/45
f 32/1/46 31/1/46 60/1/46 54/1/46
f 44/1/47 90/1/47 91/1/47 52/1/47
f 119/1/48 120/1/48 67/1/48 66/1/48
f 48/1/49 49/1/49 7/1/49 43/1/49
f 184/1/50 10/1/50 9/1/50 185/1/50
f 48/1/51 152/1/51 51/1/51 42/1/51
f 42/1/52 51/1/52 126/1/52 125/1/52
f 43/1/53 157/1/53 152/1/53 48/1/53
f 149/1/54 97/1/54 96/1/54 148/1/54
f 41/1/55 14/1/55 46/1/55 13/1/55
f 14/1/56 52/1/56 164/1/56 46/1/56
f 52/1/57 91/1/57 163/1/57 164/1/57
f 91/1/58 67/1/58 120/1/58 53/1/58
f 26/1/59 27/1/59 29/1/59 55/1/59
f 25/1/60 30/1/60 28/1/60 58/1/60
f 62/1/61 89/1/61 88/1/61 63/1/61
f 33/1/62 54/1/62 60/1/62 45/1/62
f 89/1/63 62/1/63 64/1/63 90/1/63
f 63/1/64 88/1/64 66/1/64 65/1/64
f 67/1/65 68/1/65 65/1/65 66/1/65
f 91/1/66 86/1/66 68/1/66 67/1/66
f 62/1/67 69/1/67 71/1/67 64/1/67
f 65/1/68 72/1/68 70/1/68 63/1/68
f 68/1/69 73/1/69 72/1/69 65/1/69
f 68/1/70 86/1/70 85/1/70 73/1/70
f 84/1/71 87/1/71 78/1/71 83/1/71
f 82/1/72 79/1/72 87/1/72 84/1/72
f 75/1/73 80/1/73 79/1/73 82/1/73
f 75/1/74 74/1/74 81/1/74 80/1/74
f 83/1/75 78/1/75 77/1/75 76/1/75
f 69/1/76 70/1/76 84/1/76 83/1/76
f 70/1/77 72/1/77 82/1/77 84/1/77
f 71/1/78 76/1/78 74/1/78 85/1/78
f 74/1/79 75/1/79 73/1/79 85/1/79
f 76/1/80 77/1/80 81/1/80 74/1/80
f 85/1/81 86/1/81 64/1/81 71/1/81
f 90/1/82 64/1/82 86/1/82 91/1/82
f 77/1/83 78/1/83 87/1/83 81/1/83
f 72/1/84 73/1/84 75/1/84 82/1/84
f 71/1/85 69/1/85 83/1/85 76/1/85
f 15/1/86 23/1/86 24/1/86 16/1/86
f 92/1/87 119/1/87 118/1/87 93/1/87
f 80/1/88 81/1/88 87/1/88 79/1/88
f 119/1/89 92/1/89 94/1/89 120/1/89
f 93/1/90 118/1/90 96/1/90 95/1/90
f 97/1/91 98/1/91 95/1/91 96/1/91
f 53/1/92 116/1/92 98/1/92 97/1/92
f 92/1/93 99/1/93 101/1/93 94/1/93
f 95/1/94 102/1/94 100/1/94 93/1/94
f 98/1/95 103/1/95 102/1/95 95/1/95
f 98/1/96 116/1/96 115/1/96 103/1/96
f 113/1/97 108/1/97 107/1/97 106/1/97
f 114/1/98 117/1/98 108/1/98 113/1/98
f 112/1/99 109/1/99 117/1/99 114/1/99
f 105/1/100 110/1/100 109/1/100 112/1/100
f 105/1/101 104/1/101 111/1/101 110/1/101
f 101/1/102 99/1/102 113/1/102 106/1/102
f 99/1/103 100/1/103 114/1/103 113/1/103
f 106/1/104 107/1/105 111/1/105 104/1/106
f 104/1/107 105/1/107 103/1/107 115/1/107
f 102/1/108 103/1/108 105/1/108 112/1/108
f 115/1/109 116/1/109 94/1/109 101/1/109
f 120/1/110 94/1/110 116/1/110 53/1/110
f 107/1/111 108/1/111 117/1/111 111/1/111
f 131/1/112 138/1/112 137/1/112 133/1/112
f 100/1/113 102/1/113 112/1/113 114/1/113
f 101/1/114 106/1/104 104/1/106 115/1/114
f 63/1/115 70/1/115 69/1/115 62/1/115
f 121/1/116 148/1/116 147/1/116 122/1/116
f 110/1/117 111/1/117 117/1/117 109/1/117
f 148/1/118 121/1/118 123/1/118 149/1/118
f 122/1/119 147/1/119 125/1/119 124/1/119
f 126/1/120 145/1/120 124/1/120 125/1/120
f 150/1/121 144/1/121 145/1/121 126/1/121
f 121/1/122 127/1/122 129/1/122 123/1/122
f 124/1/123 130/1/123 128/1/123 122/1/123
f 135/1/124 130/1/124 124/1/124 145/1/124
f 135/1/125 145/1/125 144/1/125 143/1/125
f 128/1/126 132/1/126 131/1/126 127/1/126
f 127/1/127 131/1/127 133/1/127 129/1/127
f 130/1/128 134/1/128 132/1/128 128/1/128
f 135/1/129 136/1/129 134/1/129 130/1/129
f 132/1/130 146/1/130 138/1/130 131/1/130
f 134/1/131 139/1/131 146/1/131 132/1/131
f 136/1/132 140/1/132 139/1/132 134/1/132
f 136/1/133 142/1/133 141/1/133 140/1/133
f 141/1/134 142/1/134 133/1/134 137/1/134
f 142/1/135 136/1/135 135/1/135 143/1/135
f 143/1/136 144/1/136 123/1/136 129/1/136
f 149/1/137 123/1/137 144/1/137 150/1/137
f 137/1/138 138/1/138 146/1/138 141/1/138
f 133/1/139 142/1/139 143/1/139 129/1/139
f 93/1/140 100/1/140 99/1/140 92/1/140
f 122/1/141 128/1/141 127/1/141 121/1/141
f 140/1/142 141/1/142 146/1/142 139/1/142
f 149/1/143 150/1/143 53/1/143 97/1/143
f 163/1/144 151/1/145 153/1/145 165/1/146
f 151/1/147 150/1/147 126/1/147 51/1/147
f 166/1/148 188/1/148 12/1/148 187/1/148
f 193/1/149 161/1/149 160/1/149 190/1/149 199/1/149
f 51/1/150 152/1/150 153/1/150 151/1/150
f 188/1/151 159/1/151 156/1/151 20/1/151
f 159/1/152 188/1/152 166/1/152 165/1/152
f 162/1/153 195/1/153 194/1/153 155/1/153
f 158/1/154 189/1/154 159/1/154 165/1/154
f 212/1/155 160/1/155 161/1/155 198/1/155 210/1/155
f 163/1/144 165/1/146 166/1/156 164/1/156
f 187/1/157 46/1/157 164/1/157 166/1/157
f 47/1/158 1/1/158 4/1/158 50/1/158
f 192/1/159 1/1/159 47/1/159 169/1/159
f 169/1/160 47/1/160 3/1/160 13/1/160
f 203/1/161 201/1/161 226/1/161 225/1/161
f 38/1/162 171/1/162 172/1/162 39/1/162
f 35/1/163 173/1/163 170/1/163 34/1/163
f 36/1/164 174/1/164 173/1/164 35/1/164
f 36/1/165 37/1/165 180/1/165 174/1/165
f 172/1/166 171/1/166 175/1/166 176/1/166
f 181/1/167 170/1/167 173/1/167 178/1/167
f 173/1/168 174/1/168 177/1/168 178/1/168
f 179/1/169 177/1/169 174/1/169 180/1/169
f 172/1/170 176/1/170 179/1/170 180/1/170
f 180/1/171 37/1/171 39/1/171 172/1/171
f 176/1/172 175/1/172 181/1/172 179/1/172
f 18/1/173 35/1/173 34/1/173 11/1/173
f 177/1/174 179/1/174 181/1/174 178/1/174
f 184/1/175 185/1/175 206/1/175 208/1/175
f 1/1/176 192/1/176 167/1/176 183/1/176
f 202/1/177 204/1/177 182/1/177 197/1/177
f 161/1/178 193/1/178 186/1/178 198/1/178
f 185/1/179 9/1/179 183/1/179 182/1/179
f 43/1/180 7/1/180 10/1/180 186/1/180
f 12/1/181 188/1/181 20/1/181 19/1/181
f 169/1/182 13/1/182 46/1/182 187/1/182
f 158/1/183 190/1/183 191/1/183 189/1/183
f 8/1/184 168/1/184 192/1/184 169/1/184
f 157/1/185 193/1/185 199/1/185 200/1/185
f 190/1/186 160/1/186 195/1/186 191/1/186
f 192/1/187 168/1/187 196/1/187 167/1/187
f 157/1/188 43/1/188 186/1/188 193/1/188
f 199/1/189 190/1/189 158/1/189 200/1/189
f 200/1/190 153/1/190 152/1/190 157/1/190
f 159/1/191 189/1/191 162/1/191 156/1/191
f 189/1/192 191/1/192 195/1/192 162/1/192
f 155/1/193 154/1/193 156/1/193 162/1/193
f 195/1/194 160/1/194 197/1/194 194/1/194
f 196/1/195 168/1/195 155/1/195 194/1/195
f 196/1/196 194/1/196 197/1/196 167/1/196
f 186/1/197 10/1/197 184/1/197 198/1/197
f 158/1/198 165/1/198 153/1/198 200/1/198
f 171/1/199 170/1/199 181/1/199 175/1/199
f 163/1/200 91/1/200 53/1/200 150/1/200 151/1/200
f 50/1/201 49/1/201 6/1/201 5/1/201 2/1/201
f 206/1/202 185/1/202 182/1/202 204/1/202
f 207/1/203 209/1/203 224/1/203 222/1/203
f 204/1/204 202/1/204 214/1/204 215/1/204
f 211/1/205 201/1/205 213/1/205 217/1/205
f 206/1/206 204/1/206 215/1/206 219/1/206
f 212/1/207 210/1/207 223/1/207 218/1/207
f 208/1/208 206/1/208 219/1/208 221/1/208
f 202/1/209 197/1/209 160/1/209 212/1/209
f 214/1/210 213/1/210 216/1/210 215/1/210
f 213/1/211 214/1/211 218/1/211 217/1/211
f 215/1/212 216/1/212 220/1/212 219/1/212
f 219/1/213 220/1/213 222/1/213 221/1/213
f 221/1/214 222/1/214 224/1/214 223/1/214
f 217/1/215 218/1/215 223/1/215 224/1/215
f 205/1/216 207/1/216 222/1/216 220/1/216
f 203/1/217 205/1/217 220/1/217 216/1/217
f 209/1/218 211/1/218 217/1/218 224/1/218
f 202/1/219 212/1/219 218/1/219 214/1/219
f 210/1/220 208/1/220 221/1/220 223/1/220
f 201/1/221 203/1/221 216/1/221 213/1/221
f 226/1/222 227/1/222 230/1/222 229/1/222 228/1/222 225/1/222
f 207/1/223 205/1/223 228/1/223 229/1/223
f 209/1/224 207/1/224 229/1/224 230/1/224
f 201/1/225 211/1/225 227/1/225 226/1/225
f 205/1/226 203/1/226 225/1/226 228/1/226
f 211/1/227 209/1/227 230/1/227 227/1/227
f 34/1/228 170/1/228 171/1/228 38/1/228
